<svg xmlns="http://www.w3.org/2000/svg" xmlns:xlink="http://www.w3.org/1999/xlink" width="500" height="294" viewBox="0 0 500 294">
  <defs>
    <clipPath id="clip-studio-textil-diseño-telas">
      <rect width="500" height="294"/>
    </clipPath>
  </defs>
  <g id="studio-textil-diseño-telas" clip-path="url(#clip-studio-textil-diseño-telas)">
    <g id="Grupo_7" data-name="Grupo 7" transform="translate(157.999 9.823)">
      <path id="Trazado_25" data-name="Trazado 25" d="M730.394,282.865a10.708,10.708,0,0,0-5.72-1.086c-2.321.135-4.343.862-5.557,3.05a1.019,1.019,0,0,1-.531.507c-.982.2-1.355.995-1.85,1.718-1.256,1.836-2.846,2.9-5.223,2.229a12.463,12.463,0,0,0-2.445-.154,22.234,22.234,0,0,0-14.7,6.369c-2.12,2.024-3.942,4.334-4.122,7.384a3.306,3.306,0,0,1-2.5,3.152c-2.028.8-4.181.774-6.292,1.036s-4.141.79-5.555,2.537c-1.283,1.582-1.064,2.137.856,2.558.162.035.317.111.483.139,3.221.557,6.364.711,8.929-1.864a21.615,21.615,0,0,1,2.229-2.191c1.9-1.424,2.885-1.209,3.833.966a27.933,27.933,0,0,0,2.67,4.815c3.3,4.741,7.7,8.35,12.273,11.761,1.947,1.449,3.933,2.846,5.913,4.248,2.124,1.5,4.883,1.306,7.359-.5a6.91,6.91,0,0,0,2.745-7.849,55.152,55.152,0,0,1-2.461-12.654c-.6-5.759-1.673-11.356-5.3-16.115a1.842,1.842,0,0,1,.034-2.53,1.9,1.9,0,0,1,2.527-.254c.807.446,1.621.882,2.465,1.249,1.41.612,2.906,1.058,4.348.231a18.143,18.143,0,0,0,6.434-6.037C732.049,284.295,731.769,283.589,730.394,282.865Z" transform="translate(-566.277 -248.261)" fill="#fff"/>
      <path id="Trazado_26" data-name="Trazado 26" d="M731.028,279.183a14.19,14.19,0,0,0-12.826-.2c-.438.213-.747.47-1.044-.23-1.547-3.647-4.657-4.4-8.094-3.854-.965.152-1.187-.069-1.4-.926a6.8,6.8,0,0,0-4.351-5.141,9.282,9.282,0,0,0-5.814.042,1.535,1.535,0,0,1-2.1-.718,9.5,9.5,0,0,0-11.212-4.217c-1.391.386-2.161.426-3.169-1.014-3.088-4.416-8.886-5.767-14.188-3.669-.452.178-.811.585-1.346-.125a8.012,8.012,0,0,0-9.143-2.961,3.452,3.452,0,0,1-3.988-.793c-3.243-2.794-7.155-2.936-11.135-1.715a1.2,1.2,0,0,1-1.572-.409c-5.559-6.667-16.758-7.206-23.066-1.134-.47.453-.733.543-1.321.116-5.758-4.179-12.049-3.323-16.521,2.235a1,1,0,0,1-1.439.335,9.748,9.748,0,0,0-10.109,1.026,12.289,12.289,0,0,0-4.795,7.431c-.206.879-.544,1.117-1.414,1.076a22.024,22.024,0,0,0-3.509.149c-4.783.551-8.73,3.27-9.482,8.491a17.7,17.7,0,0,0,.868,7.793c.184.6.213.974-.434,1.414a7.324,7.324,0,0,0-3.108,4.7c-.657,3.121.095,6.065,1.176,8.945a4.664,4.664,0,0,1,.234,2.9,29.159,29.159,0,0,0-.247,14.4c1.886,7.183,6.616,11.955,13.112,15.152a1.659,1.659,0,0,1,1.128,1.765c-.052,6.079-.029,12.155-.026,18.234a7.56,7.56,0,0,1-.419,2.681c-1.068,2.945.221,5.105,3.309,5.8a22.545,22.545,0,0,0,5.379.283c.8-.017.992.215.924.988-.224,2.578.985,4.092,3.558,4.537a23.207,23.207,0,0,0,6.144.131c4.332-.409,5.716-2.691,4.318-6.848a4.536,4.536,0,0,1-.2-1.48c0-5.868.007-11.736-.015-17.6-.007-1.5-.108-2.884,1.307-4.042a2.394,2.394,0,0,1,2.089-.791,34.526,34.526,0,0,0,19.161-2.464,1.66,1.66,0,0,1,1.91.15,34.49,34.49,0,0,0,16.092,6.22c.718.082.884.331.877,1-.031,3.017-.008,6.035-.015,9.053a58.063,58.063,0,0,1-.073,6.031c-.338,3.149.888,4.752,4.069,4.818a17.8,17.8,0,0,0,4.259-.174c.634-.141.853.074.768.691-.046.329-.046.666-.116.989-.44,2.055.33,3.572,2.361,4.01a15.891,15.891,0,0,0,8.664-.4,3.71,3.71,0,0,0,2.488-4.175,17.8,17.8,0,0,1-.329-1.843c-.026-5.24-.008-10.479-.022-15.719,0-.509.1-.7.669-.753a4.145,4.145,0,0,0,3.571-2.4.907.907,0,0,1,1.28-.542,13.761,13.761,0,0,0,4.352.46,5.531,5.531,0,0,0,5.177-3.711,10.989,10.989,0,0,0,.585-4.452,1.227,1.227,0,0,1,1.087-1.494,10.444,10.444,0,0,0,4.252-2.085,5.936,5.936,0,0,0,2.256-5.893,12.812,12.812,0,0,0-2.252-5.128,1.305,1.305,0,0,1,.149-1.9,2.674,2.674,0,0,1,.327.4,39.647,39.647,0,0,0,8.928,10.93c3.892,3.521,8.285,6.384,12.5,9.474a7.366,7.366,0,0,0,3.864,1.354,11.082,11.082,0,0,0,11.456-14.832,35.7,35.7,0,0,1-1.377-5.721c-1.025-6.123-.991-12.449-3.772-18.515a8,8,0,0,0,5.03-.663,20.737,20.737,0,0,0,8.187-7.765A5.185,5.185,0,0,0,731.028,279.183ZM684.9,322.769a14.38,14.38,0,0,1-3.9,1.341c-1.523.338-1.9.859-1.941,2.447a22.893,22.893,0,0,1-.221,4.76,2.148,2.148,0,0,1-2.325,1.828,17.08,17.08,0,0,1-5.142-1.024c-1.761-.518-2.576-.035-2.9,1.8-.3,1.684-.645,1.91-2.4,1.546-1.734-.359-2.635.376-2.636,2.166q0,9.243,0,18.487a6.556,6.556,0,0,0,.012.754c.189,1.658.191,1.658-1.527,1.885-4.047.537-4.046.537-4.046-3.467q0-9.367.007-18.736c0-1.074-.291-1.923-1.454-2.159-1.367-.278-2.284.551-2.293,2.074-.018,3.1-.005,6.205-.005,9.307v4.779c0,2.231,0,2.231-2.2,2.424-3.06.266-3.06.266-3.06-2.822q0-7.734,0-15.468c0-1.773-.406-2.236-2.159-2.358a32.077,32.077,0,0,1-17.469-6.6,2.8,2.8,0,0,0-3.331-.294c-6.416,3.233-13.191,3.727-20.172,2.5-.453-.08-.908-.155-1.364-.211a1.784,1.784,0,0,0-2.241,1.871,1.3,1.3,0,0,1-.814,1.391,2.318,2.318,0,0,0-1.42,2.527c.028,3.605.011,7.21.011,10.815h0q0,4.59,0,9.18a8.629,8.629,0,0,0,.569,4.055c.376.754.153,1.238-.805,1.332a30.673,30.673,0,0,1-5.265,0c-.605-.046-.918-.26-.756-.954a32.219,32.219,0,0,0,.329-7.261c.026-6.959.011-13.918.013-20.877,0-.293.013-.588-.014-.879a1.872,1.872,0,0,0-1.917-1.775,1.783,1.783,0,0,0-1.806,1.859c-.039,1.844-.013,3.689-.013,5.534,0,4.821-.023,9.641.015,14.462.011,1.222-.2,2.417-.222,3.629-.008.4-.117.631-.56.634a23.572,23.572,0,0,1-5.124-.215c-.6-.128-.813-.374-.488-.95a7.083,7.083,0,0,0,.57-3.665c-.009-6.709-.031-13.415.018-20.121a2.615,2.615,0,0,0-1.78-2.79c-4.893-2.112-8.983-5.167-11.361-10.132a21.479,21.479,0,0,1-1.585-12.256,32.329,32.329,0,0,1,1.076-5.151,3.025,3.025,0,0,0-.216-2.076,17.806,17.806,0,0,1-1.753-6.877,4.5,4.5,0,0,1,2.892-4.42c1.68-.759,1.975-1.415,1.342-3.15a26.131,26.131,0,0,1-1.341-5.069c-.7-4.617,1.61-7.642,6.25-8.2a25.462,25.462,0,0,1,5.259.068c1.637.14,2.29-.412,2.44-2.073a10.619,10.619,0,0,1,2.131-5.676c2.4-3.111,5.806-3.81,9.078-1.642,1.835,1.216,3.075,1.011,4.113-1.017a8.36,8.36,0,0,1,4.073-3.788c3.134-1.428,6.4-.563,9.276,2.412,1.642,1.694,2.631,1.568,3.888-.416a9.277,9.277,0,0,1,6.264-4.027c4.72-.994,8.892.016,12.248,3.648a12.288,12.288,0,0,1,1.087,1.533,1.915,1.915,0,0,0,2.891.734,9.207,9.207,0,0,1,7.009-.86,5.338,5.338,0,0,1,3.818,3.477c.605,1.675,2.2,1.961,3.421.66a5,5,0,0,1,5.953-1.166,3.416,3.416,0,0,1,1.98,2.441c.485,2.131,1.668,2.567,3.5,1.277a8.919,8.919,0,0,1,9.712-.433,7.677,7.677,0,0,1,3.056,4.018c.621,1.655,1.492,2.025,3.1,1.265a11.963,11.963,0,0,1,4.664-1.368c3.332-.108,4.966,2.191,6.38,4.7.876,1.556,1.474,1.839,3.115,1.222a11.512,11.512,0,0,1,4.254-.98,3.008,3.008,0,0,1,3.133,2.209,10.53,10.53,0,0,1,.6,2.815c.155,1.766,1.1,2.466,2.8,1.97a12.652,12.652,0,0,1,3.8-.69,2.722,2.722,0,0,1,2.745,1.965c.617,1.72,1.182,3.388-.328,5.02a2.8,2.8,0,0,1-2.575,1.122c-8.947-.884-16.083,2.526-21.674,9.38a11.546,11.546,0,0,0-2.588,6.3,1.141,1.141,0,0,1-.844,1.073,13.106,13.106,0,0,1-4.539.832A13.724,13.724,0,0,0,674.76,306a6.869,6.869,0,0,0-3.422,5.923,1.333,1.333,0,0,0,.994,1.54c3.492.967,6.993,1.784,10.612.638.3-.1.619-.285.851.167.786,1.521,1.944,2.825,2.566,4.45C687.1,320.651,686.726,321.76,684.9,322.769Zm45.134-37.563a18.146,18.146,0,0,1-6.434,6.037c-1.442.828-2.937.382-4.348-.23-.844-.367-1.658-.8-2.465-1.249a1.9,1.9,0,0,0-2.527.254,1.842,1.842,0,0,0-.034,2.53c3.629,4.759,4.7,10.356,5.3,16.115a55.144,55.144,0,0,0,2.461,12.654,6.91,6.91,0,0,1-2.745,7.849c-2.476,1.809-5.236,2.007-7.359.5-1.98-1.4-3.966-2.8-5.913-4.248C701.4,322.01,697,318.4,693.7,313.66a27.942,27.942,0,0,1-2.671-4.815c-.948-2.175-1.933-2.39-3.833-.966a21.589,21.589,0,0,0-2.229,2.191c-2.566,2.575-5.708,2.421-8.929,1.864-.166-.029-.32-.1-.483-.139-1.92-.42-2.139-.976-.856-2.558,1.414-1.747,3.451-2.276,5.555-2.537s4.265-.234,6.292-1.036a3.305,3.305,0,0,0,2.5-3.152c.18-3.05,2-5.361,4.122-7.384a22.234,22.234,0,0,1,14.7-6.369,12.454,12.454,0,0,1,2.445.154c2.377.673,3.967-.394,5.223-2.229.495-.723.867-1.515,1.849-1.718a1.017,1.017,0,0,0,.531-.507c1.215-2.188,3.236-2.915,5.558-3.05a10.709,10.709,0,0,1,5.72,1.086C730.563,283.217,730.841,283.923,730.035,285.205Z" transform="translate(-565.07 -247.89)"/>
      <path id="Trazado_27" data-name="Trazado 27" stroke="#000" d="M707.468,278.848a14.338,14.338,0,0,1,4.742,0,2.722,2.722,0,0,1,2.744,1.965c.617,1.72,1.182,3.388-.328,5.02a2.8,2.8,0,0,1-2.575,1.122c-8.947-.884-16.083,2.526-21.674,9.38a11.537,11.537,0,0,0-2.588,6.3,1.142,1.142,0,0,1-.844,1.073,13.1,13.1,0,0,1-4.539.832,13.725,13.725,0,0,0-6.467,1.791,6.869,6.869,0,0,0-3.422,5.923,1.333,1.333,0,0,0,.994,1.54c3.492.967,8.059,1.6,11.677.456" fill="none" transform="translate(-566.248 -248.227)" stroke-linecap="round" stroke-linejoin="round" stroke-width="2" fill-rule="evenodd"/>
      <g id="Grupo_4" data-name="Grupo 4" transform="translate(141.639 49.488)">
        <path id="Trazado_28" data-name="Trazado 28" d="M709.28,300.652c.025-.8-.116-1.388.453-1.635a1.345,1.345,0,0,1,1.484.433,7.468,7.468,0,0,1,2.307,4.731,1.229,1.229,0,0,1-.5,1.332c-.527.288-.982-.028-1.362-.357A6.974,6.974,0,0,1,709.28,300.652Z" transform="translate(-708.29 -297.938)" fill-rule="evenodd"/>
        <path id="Trazado_29" data-name="Trazado 29" d="M712.6,306.609a2.519,2.519,0,0,1-1.592-.715,7.934,7.934,0,0,1-2.722-5.135.975.975,0,0,1-.006-.15c0-.139,0-.272,0-.4a1.986,1.986,0,0,1,1.047-2.112,2.24,2.24,0,0,1,2.565.63,8.437,8.437,0,0,1,2.6,5.342,2.131,2.131,0,0,1-1,2.3A1.838,1.838,0,0,1,712.6,306.609Zm-2.341-6.017A5.977,5.977,0,0,0,712.3,304.4a2.229,2.229,0,0,0,.235.184,1.577,1.577,0,0,0-.008-.312,6.5,6.5,0,0,0-2.012-4.119,1.375,1.375,0,0,0-.257-.2c0,.081,0,.17,0,.246C710.261,300.321,710.262,300.454,710.259,300.591Z" transform="translate(-708.279 -297.927)"/>
      </g>
      <g id="Grupo_5" data-name="Grupo 5" transform="translate(130.545 54.019)">
        <path id="Trazado_30" data-name="Trazado 30" d="M702.321,308.692c-.028.608-.026,1.109-.477,1.371a1.135,1.135,0,0,1-1.377-.3,6.693,6.693,0,0,1-2.4-5.166c0-.369-.015-.788.4-.987a1.138,1.138,0,0,1,1.276.241A7.571,7.571,0,0,1,702.321,308.692Z" transform="translate(-697.074 -302.519)" fill-rule="evenodd"/>
        <path id="Trazado_31" data-name="Trazado 31" d="M701.362,311.175a2.341,2.341,0,0,1-1.563-.68,7.66,7.66,0,0,1-2.737-5.9,1.872,1.872,0,0,1,.954-1.879,2.084,2.084,0,0,1,2.328.362,8.5,8.5,0,0,1,2.938,5.435,1.007,1.007,0,0,1,.014.218l-.988-.046.984.137a2.235,2.235,0,0,1-.964,2.09A1.936,1.936,0,0,1,701.362,311.175Zm-2.321-6.609a5.709,5.709,0,0,0,2.072,4.451,1.537,1.537,0,0,0,.177.136c.014-.115.021-.273.027-.4a6.473,6.473,0,0,0-2.212-4.133Z" transform="translate(-697.063 -302.508)"/>
      </g>
      <g id="Grupo_6" data-name="Grupo 6" transform="translate(157.656 2.91)">
        <path id="Trazado_32" data-name="Trazado 32" d="M724.475,260.619a9.741,9.741,0,1,1,9.774,9.655A9.685,9.685,0,0,1,724.475,260.619Zm9.733,7.957a8.054,8.054,0,1,0,.034-16.108,8.054,8.054,0,1,0-.034,16.108Z" transform="translate(-724.475 -250.832)" fill-rule="evenodd"/>
        <path id="Trazado_33" data-name="Trazado 33" d="M735.481,261.36c1.49,1.242,2.242,2.92,3.263,4.441-1.656.426-1.919.314-2.693-1.033a14.473,14.473,0,0,0-1.514-2.343,2.2,2.2,0,0,0-1.023-.751c-1.494-.467-1.8-.275-1.8,1.232,0,.833-.042,1.668.01,2.5.041.666-.376.608-.76.546s-1.01.346-1.008-.515q.013-4.7-.007-9.4c0-.472.221-.543.615-.536,1.532.028,3.067,0,4.6.063a2.862,2.862,0,0,1,2.937,2.464,2.975,2.975,0,0,1-2.211,3.15C735.773,261.22,735.661,261.279,735.481,261.36Zm-2.079-4.4c-1.684,0-1.684,0-1.684,1.732,0,.332.006.665,0,1-.005.284.11.415.41.419a12.311,12.311,0,0,0,3.068-.232,1.332,1.332,0,0,0,1.071-1.286,1.4,1.4,0,0,0-.993-1.451A5.433,5.433,0,0,0,733.4,256.963Z" transform="translate(-724.535 -250.883)" fill-rule="evenodd"/>
      </g>
      <path id="Trazado_34" data-name="Trazado 34" d="M683.837,314.306c-.232-.452-.547-.265-.851-.167-3.62,1.146-7.12.329-10.612-.638a1.333,1.333,0,0,1-.994-1.54,6.87,6.87,0,0,1,3.422-5.923,13.726,13.726,0,0,1,6.467-1.791,13.1,13.1,0,0,0,4.539-.832,1.142,1.142,0,0,0,.844-1.073,11.543,11.543,0,0,1,2.588-6.3c5.591-6.854,12.728-10.264,21.674-9.38a2.8,2.8,0,0,0,2.575-1.122c1.51-1.632.946-3.3.328-5.02a2.721,2.721,0,0,0-2.744-1.965,12.659,12.659,0,0,0-3.8.69c-1.7.5-2.645-.2-2.8-1.97a10.525,10.525,0,0,0-.6-2.815,3.008,3.008,0,0,0-3.133-2.208,11.513,11.513,0,0,0-4.254.98c-1.642.616-2.239.333-3.115-1.222-1.414-2.511-3.048-4.81-6.38-4.7a11.963,11.963,0,0,0-4.664,1.368c-1.611.76-2.482.39-3.1-1.265a7.677,7.677,0,0,0-3.056-4.018,8.919,8.919,0,0,0-9.712.433c-1.833,1.29-3.016.855-3.5-1.277a3.417,3.417,0,0,0-1.98-2.441,5,5,0,0,0-5.953,1.166c-1.225,1.3-2.816,1.016-3.421-.66a5.338,5.338,0,0,0-3.818-3.477,9.208,9.208,0,0,0-7.009.861,1.915,1.915,0,0,1-2.891-.734,12.287,12.287,0,0,0-1.087-1.533c-3.356-3.633-7.528-4.643-12.248-3.648a9.278,9.278,0,0,0-6.264,4.027c-1.257,1.984-2.246,2.111-3.888.416-2.879-2.975-6.142-3.84-9.276-2.412a8.36,8.36,0,0,0-4.073,3.788c-1.038,2.027-2.278,2.232-4.112,1.017-3.273-2.168-6.676-1.469-9.078,1.642a10.619,10.619,0,0,0-2.131,5.676c-.151,1.661-.8,2.214-2.44,2.073a25.454,25.454,0,0,0-5.259-.068c-4.64.56-6.949,3.585-6.251,8.2a26.121,26.121,0,0,0,1.341,5.069c.633,1.735.338,2.391-1.342,3.15a4.5,4.5,0,0,0-2.892,4.42,17.808,17.808,0,0,0,1.753,6.877,3.021,3.021,0,0,1,.216,2.076,32.361,32.361,0,0,0-1.076,5.151,21.477,21.477,0,0,0,1.585,12.256c2.378,4.965,6.468,8.02,11.361,10.132a2.615,2.615,0,0,1,1.78,2.79c-.048,6.706-.027,13.412-.018,20.121a7.077,7.077,0,0,1-.57,3.665c-.325.577-.108.823.488.951a23.579,23.579,0,0,0,5.124.215c.443,0,.552-.235.56-.634.02-1.212.232-2.406.222-3.629-.038-4.821-.015-9.641-.015-14.462,0-1.845-.026-3.689.013-5.534a1.784,1.784,0,0,1,1.806-1.859,1.872,1.872,0,0,1,1.917,1.775c.027.291.014.586.014.879,0,6.959.013,13.918-.013,20.876a32.22,32.22,0,0,1-.329,7.262c-.162.694.15.908.756.954a30.692,30.692,0,0,0,5.265,0c.958-.094,1.181-.579.8-1.332a8.63,8.63,0,0,1-.569-4.055q0-4.59,0-9.18h0c0-3.6.017-7.21-.011-10.815a2.318,2.318,0,0,1,1.42-2.527,1.3,1.3,0,0,0,.814-1.391,1.784,1.784,0,0,1,2.241-1.871c.456.055.911.131,1.364.211,6.982,1.222,13.757.729,20.172-2.5a2.8,2.8,0,0,1,3.331.294,32.078,32.078,0,0,0,17.469,6.6c1.754.122,2.159.585,2.159,2.358q.006,7.734,0,15.468c0,3.088,0,3.088,3.06,2.822,2.2-.193,2.2-.193,2.2-2.424v-4.779c0-3.1-.013-6.2,0-9.307.009-1.523.927-2.352,2.294-2.074,1.163.236,1.455,1.085,1.454,2.159q-.021,9.369-.007,18.736c0,4,0,4,4.046,3.467,1.719-.227,1.716-.227,1.527-1.885a6.654,6.654,0,0,1-.012-.754q0-9.244,0-18.487c0-1.79.9-2.525,2.636-2.166,1.754.364,2.1.139,2.4-1.546.322-1.832,1.136-2.315,2.9-1.8a17.078,17.078,0,0,0,5.142,1.024,2.148,2.148,0,0,0,2.325-1.828,22.91,22.91,0,0,0,.221-4.76c.04-1.589.417-2.109,1.94-2.447a14.378,14.378,0,0,0,3.9-1.341c1.826-1.009,2.2-2.118,1.461-4.055C685.782,317.131,684.623,315.827,683.837,314.306Z" transform="translate(-565.112 -247.932)" fill="#fff"/>
    </g>
    <g id="Grupo_1" data-name="Grupo 1" transform="translate(10 172.879)">
      <path id="Trazado_1" data-name="Trazado 1" d="M85.458,263.066a29.78,29.78,0,0,1,8.2,4.849,2.138,2.138,0,0,1,.24,3.041L89.893,275.6a2.154,2.154,0,0,1-2.892.322,24.49,24.49,0,0,0-5.523-3.02,21.254,21.254,0,0,0-7.578-1.342,11.958,11.958,0,0,0-7.05,1.87,6.135,6.135,0,0,0-2.637,5.323,6.569,6.569,0,0,0,1.1,3.933A10.093,10.093,0,0,0,69.2,285.56a64.138,64.138,0,0,0,8.345,3.069q9.879,3.167,14.772,7.818t4.892,13.285a19.143,19.143,0,0,1-3.07,10.791,20.375,20.375,0,0,1-8.92,7.29A33.128,33.128,0,0,1,71.5,330.452a36.953,36.953,0,0,1-14-2.495,32.826,32.826,0,0,1-8.9-5.306,2.151,2.151,0,0,1-.224-3.088l4.411-4.882a2.15,2.15,0,0,1,2.9-.256,28.278,28.278,0,0,0,6.418,3.7,23.678,23.678,0,0,0,9.016,1.679,13.26,13.26,0,0,0,8.3-2.4,7.992,7.992,0,0,0,3.117-6.715,8.325,8.325,0,0,0-1.1-4.46,9.728,9.728,0,0,0-3.789-3.214,44.513,44.513,0,0,0-7.769-2.973q-10.841-3.356-15.491-8.057t-4.652-12.278a16.775,16.775,0,0,1,2.973-9.832,19.069,19.069,0,0,1,8.249-6.57A29.69,29.69,0,0,1,72.94,261,34.591,34.591,0,0,1,85.458,263.066Z" transform="translate(-47.827 -251.892)" fill="#e4001a"/>
      <path id="Trazado_2" data-name="Trazado 2" d="M132.866,325.236a1.709,1.709,0,0,1-.626,2.3,21.994,21.994,0,0,1-4.884,2.044,25.052,25.052,0,0,1-6.954,1.008q-7.867-.1-11.895-4.509t-4.029-12.949v-23.6a1.72,1.72,0,0,0-1.72-1.72H98.621a1.72,1.72,0,0,1-1.721-1.721v-6.151a1.72,1.72,0,0,1,1.721-1.721h4.138a1.72,1.72,0,0,0,1.72-1.72v-7.881a1.72,1.72,0,0,1,1.516-1.708l10.181-1.219a1.72,1.72,0,0,1,1.925,1.708v9.1a1.72,1.72,0,0,0,1.72,1.72h8a1.72,1.72,0,0,1,1.7,1.959l-.861,6.152a1.719,1.719,0,0,1-1.7,1.482h-7.143a1.72,1.72,0,0,0-1.72,1.72v23.316q0,3.646,1.247,5.275a4.518,4.518,0,0,0,3.837,1.63,10.9,10.9,0,0,0,4.375-1.043,1.705,1.705,0,0,1,2.17.766Z" transform="translate(-49.246 -252.027)" fill="#e4001a"/>
      <path id="Trazado_3" data-name="Trazado 3" d="M175.6,329.425h-7.931a2.029,2.029,0,0,1-2.019-1.831l-.007-.066a2.033,2.033,0,0,0-3.458-1.232,16.1,16.1,0,0,1-3.549,2.6,18.569,18.569,0,0,1-8.92,2.063q-6.907,0-10.552-4.173t-3.645-11.655V280.617a2.03,2.03,0,0,1,2.03-2.03h9.562a2.029,2.029,0,0,1,2.03,2.03v32.79q0,4.029,1.343,5.708a5.081,5.081,0,0,0,4.22,1.678q5.263,0,9.014-6.13a2.029,2.029,0,0,0,.29-1.054V280.617a2.03,2.03,0,0,1,2.029-2.03H175.6a2.029,2.029,0,0,1,2.029,2.03V327.4A2.028,2.028,0,0,1,175.6,329.425Z" transform="translate(-50.364 -252.4)" fill="#e4001a"/>
      <path id="Trazado_4" data-name="Trazado 4" d="M231.727,259.488v67.3a2,2,0,0,1-2,2H221.5a1.994,1.994,0,0,1-1.98-1.752h0a2,2,0,0,0-3.366-1.189,16.562,16.562,0,0,1-11.766,4.476q-9.4,0-14.341-7.242t-4.94-19.712a35.97,35.97,0,0,1,2.542-13.957,22.03,22.03,0,0,1,7.242-9.544,17.818,17.818,0,0,1,10.839-3.454,17,17,0,0,1,9.314,2.661,1.992,1.992,0,0,0,3.059-1.683V258.4a2,2,0,0,1,2.219-1.983l9.63,1.086A2,2,0,0,1,231.727,259.488Zm-18.034,59.176a15.264,15.264,0,0,0,4.059-4.137,1.979,1.979,0,0,0,.353-1.137V292.024a1.956,1.956,0,0,0-.489-1.309,15.18,15.18,0,0,0-3.587-3.034,9.277,9.277,0,0,0-4.747-1.2,8.266,8.266,0,0,0-7.338,4.124q-2.639,4.125-2.638,12.758,0,9.114,2.35,12.949a7.484,7.484,0,0,0,6.763,3.837A9.507,9.507,0,0,0,213.693,318.664Z" transform="translate(-51.799 -251.758)" fill="#e4001a"/>
      <path id="Trazado_5" data-name="Trazado 5" d="M254.671,253.874a8.106,8.106,0,0,1,0,11.415,8.309,8.309,0,0,1-6,2.254,8.137,8.137,0,0,1-5.947-2.254,8.225,8.225,0,0,1,0-11.415,8.145,8.145,0,0,1,5.947-2.254A8.317,8.317,0,0,1,254.671,253.874Zm.911,27.5V325.08a3.564,3.564,0,0,1-3.565,3.565h-6.492a3.564,3.564,0,0,1-3.564-3.565V281.372a3.564,3.564,0,0,1,3.564-3.565h6.492A3.565,3.565,0,0,1,255.581,281.372Z" transform="translate(-53.399 -251.62)" fill="#e4001a"/>
      <path id="Trazado_6" data-name="Trazado 6" d="M505.978,253.874a8.1,8.1,0,0,1,0,11.415,8.305,8.305,0,0,1-5.995,2.254,8.135,8.135,0,0,1-5.947-2.254,8.225,8.225,0,0,1,0-11.415,8.143,8.143,0,0,1,5.947-2.254A8.313,8.313,0,0,1,505.978,253.874Zm.912,27.5V325.08a3.565,3.565,0,0,1-3.565,3.565h-6.492a3.565,3.565,0,0,1-3.565-3.565V281.372a3.565,3.565,0,0,1,3.565-3.565h6.492A3.565,3.565,0,0,1,506.889,281.372Z" transform="translate(-60.671 -251.62)" fill="#e4001a"/>
      <path id="Trazado_7" data-name="Trazado 7" d="M304.064,284.152q6.425,7.148,6.426,19.809a32.323,32.323,0,0,1-2.926,14.147,21.842,21.842,0,0,1-8.441,9.448,24.5,24.5,0,0,1-13,3.358q-11.417,0-17.889-7.146t-6.476-19.808a32.312,32.312,0,0,1,2.927-14.149,21.847,21.847,0,0,1,8.441-9.448,24.693,24.693,0,0,1,13.094-3.358Q297.635,277.006,304.064,284.152Zm-25.563,7.1q-2.543,4.079-2.542,12.71T278.5,316.67a9.171,9.171,0,0,0,15.252,0q2.54-4.076,2.542-12.709T293.8,291.25a8.288,8.288,0,0,0-7.577-4.077A8.482,8.482,0,0,0,278.5,291.25Z" transform="translate(-54.017 -252.355)" fill="#e4001a"/>
      <path id="Trazado_8" data-name="Trazado 8" d="M372.922,264.842l-.983,7.063a1.984,1.984,0,0,1-1.965,1.711H356.9a1.984,1.984,0,0,0-1.984,1.984v51.379a1.984,1.984,0,0,1-1.984,1.984H342.8a1.983,1.983,0,0,1-1.984-1.984V275.6a1.984,1.984,0,0,0-1.984-1.984H325.149a1.984,1.984,0,0,1-1.984-1.984v-7.064a1.984,1.984,0,0,1,1.984-1.984h45.808A1.984,1.984,0,0,1,372.922,264.842Z" transform="translate(-55.793 -251.937)" fill="#e4001a"/>
      <path id="Trazado_9" data-name="Trazado 9" d="M404.65,308.085h-23.89a3.691,3.691,0,0,0-3.513,4.779,11.083,11.083,0,0,0,2.852,5.006,11.715,11.715,0,0,0,8.345,2.877,17.683,17.683,0,0,0,6.139-1.055,23.974,23.974,0,0,0,3.5-1.644,3.674,3.674,0,0,1,4.755,1.024l1.428,1.937a3.691,3.691,0,0,1-1.02,5.315,29.531,29.531,0,0,1-16.049,4.59q-11.992,0-18.417-7.195t-6.428-19.472a34.181,34.181,0,0,1,2.735-13.956,22.407,22.407,0,0,1,7.962-9.737,21.583,21.583,0,0,1,12.422-3.549q10.839,0,16.882,6.81t6.043,18.993q0,.481-.072,1.8A3.678,3.678,0,0,1,404.65,308.085Zm-9.78-9.113q0-12.662-9.112-12.662a7.757,7.757,0,0,0-6.57,3.117,14.088,14.088,0,0,0-2.278,5.758,3.672,3.672,0,0,0,3.617,4.361H394.87Z" transform="translate(-56.927 -252.355)" fill="#e4001a"/>
      <path id="Trazado_10" data-name="Trazado 10" d="M439.707,302.8l15.218,24.838a1.177,1.177,0,0,1-1,1.792h-12.8a1.177,1.177,0,0,1-1.056-.656l-8.3-16.843a1.177,1.177,0,0,0-2.116.009l-8.126,16.826a1.176,1.176,0,0,1-1.059.665h-12.1a1.177,1.177,0,0,1-1-1.8l15.18-24.341a1.175,1.175,0,0,0,0-1.244l-13.459-21.656a1.177,1.177,0,0,1,1-1.8h12.484a1.177,1.177,0,0,1,1.064.675l6.566,13.922a1.177,1.177,0,0,0,2.133-.01l6.4-13.9a1.178,1.178,0,0,1,1.069-.685h11.737c.917,0,1.482,1.973,1.007,2.758L439.7,301.57A1.178,1.178,0,0,0,439.707,302.8Z" transform="translate(-58.224 -252.4)" fill="#e4001a"/>
      <path id="Trazado_11" data-name="Trazado 11" d="M488.087,325.394a1.53,1.53,0,0,1-.556,2.05,21.939,21.939,0,0,1-5.041,2.134,25.049,25.049,0,0,1-6.954,1.008q-7.867-.1-11.895-4.509t-4.029-12.949v-22.82a1.532,1.532,0,0,0-1.532-1.532l-11.453-.971c-.847,0-1.532.284-1.532-.561v-7.5a1.532,1.532,0,0,1,1.532-1.532H458.08a1.532,1.532,0,0,0,1.532-1.532v-8.236a1.532,1.532,0,0,1,1.35-1.521l10.556-1.264a1.533,1.533,0,0,1,1.715,1.522v9.5a1.532,1.532,0,0,0,1.531,1.532h8.409a1.532,1.532,0,0,1,1.517,1.745l-.914,6.527a1.533,1.533,0,0,1-1.518,1.32h-7.495a1.532,1.532,0,0,0-1.531,1.532v23.5q0,3.646,1.247,5.275a4.517,4.517,0,0,0,3.837,1.63,10.972,10.972,0,0,0,4.464-1.083,1.542,1.542,0,0,1,2,.653Z" transform="translate(-59.321 -252.026)" fill="#e4001a"/>
      <path id="Trazado_12" data-name="Trazado 12" d="M517.233,326.725q-3.452-3.6-3.453-10.215V260.428a3.042,3.042,0,0,1,2.7-3.023l7.536-.85a3.043,3.043,0,0,1,3.383,3.024v56.546q0,3.359,2.781,3.357c.156,0,.309,0,.458-.013a3,3,0,0,1,3.021,2.2l1.194,4.159a3.043,3.043,0,0,1-2.143,3.785,22.869,22.869,0,0,1-5.792.709Q520.684,330.322,517.233,326.725Z" transform="translate(-61.308 -251.762)" fill="#e4001a"/>
    </g>
    <g id="Grupo_2" data-name="Grupo 2" transform="translate(156.964 260.745)">
      <path id="Trazado_13" data-name="Trazado 13" d="M346.923,347.869q1.846,1.4,1.846,5.143,0,3.665-1.808,5.162a7.014,7.014,0,0,1-4.63,1.5h-3.749V346.467h3.428A7.917,7.917,0,0,1,346.923,347.869Zm-5.557.658v9.083H342.5a3.137,3.137,0,0,0,2.489-1,5.533,5.533,0,0,0,.882-3.6,6.988,6.988,0,0,0-.446-2.786,2.564,2.564,0,0,0-1.184-1.345,4.135,4.135,0,0,0-1.8-.353Z" transform="translate(-338.582 -342.23)" fill="#e4001a"/>
      <path id="Trazado_14" data-name="Trazado 14" d="M357.434,346.467v13.205H354.65V346.467Z" transform="translate(-339.047 -342.23)" fill="#e4001a"/>
      <path id="Trazado_15" data-name="Trazado 15" d="M370.209,346.563a5.973,5.973,0,0,1,1.94,1.25l-1.325,1.545a5.1,5.1,0,0,0-1.4-.839,4.148,4.148,0,0,0-1.5-.267,2.35,2.35,0,0,0-1.392.372,1.226,1.226,0,0,0-.521,1.059,1.31,1.31,0,0,0,.219.782,1.977,1.977,0,0,0,.766.573,12.548,12.548,0,0,0,1.648.611,7.556,7.556,0,0,1,2.916,1.555,3.491,3.491,0,0,1,.965,2.644,3.828,3.828,0,0,1-.606,2.146,4.018,4.018,0,0,1-1.761,1.45,6.483,6.483,0,0,1-2.708.526,7.24,7.24,0,0,1-2.765-.5,6.347,6.347,0,0,1-2.083-1.355l1.421-1.584a5.8,5.8,0,0,0,1.571.983,4.651,4.651,0,0,0,1.78.334,2.608,2.608,0,0,0,1.638-.477,1.6,1.6,0,0,0,.615-1.336,1.659,1.659,0,0,0-.218-.888,1.917,1.917,0,0,0-.748-.639,8.6,8.6,0,0,0-1.534-.591,7.388,7.388,0,0,1-3.058-1.6,3.642,3.642,0,0,1-.331-4.4,3.767,3.767,0,0,1,1.629-1.307,5.831,5.831,0,0,1,2.367-.458A6.773,6.773,0,0,1,370.209,346.563Z" transform="translate(-339.277 -342.221)" fill="#e4001a"/>
      <path id="Trazado_16" data-name="Trazado 16" d="M386.007,346.467l-.3,2.041H380.97v3.436H385.1v2.023H380.97v3.644h5.076v2.062h-7.859V346.467Z" transform="translate(-339.728 -342.23)" fill="#e4001a"/>
      <path id="Trazado_17" data-name="Trazado 17" d="M401.761,359.546h-3.578l-4.166-10.477q.171,1.355.274,2.547t.1,2.8v5.134h-2.517V346.341h3.5l4.242,10.5a32.214,32.214,0,0,1-.378-4.694v-5.8h2.517Zm-4.42-14.752a6.062,6.062,0,0,1-.691-.382,2.436,2.436,0,0,0-.427-.277.847.847,0,0,0-.369-.086.756.756,0,0,0-.53.211,2.7,2.7,0,0,0-.473.649l-1.383-.688a4.408,4.408,0,0,1,.986-1.526,1.9,1.9,0,0,1,1.363-.591,1.721,1.721,0,0,1,.738.143,5.983,5.983,0,0,1,.682.391,3.575,3.575,0,0,0,.417.257.791.791,0,0,0,.36.086.747.747,0,0,0,.521-.2,3.032,3.032,0,0,0,.483-.64l1.382.687a4.038,4.038,0,0,1-.985,1.536,1.968,1.968,0,0,1-1.381.563A1.648,1.648,0,0,1,397.34,344.795Z" transform="translate(-340.124 -342.104)" fill="#e4001a"/>
      <path id="Trazado_18" data-name="Trazado 18" d="M416.552,346.963a5.231,5.231,0,0,1,2.006,2.357,10.255,10.255,0,0,1,0,7.453,5.281,5.281,0,0,1-2.006,2.375,5.725,5.725,0,0,1-3.106.821,5.819,5.819,0,0,1-3.115-.811,5.187,5.187,0,0,1-2.016-2.366,9.022,9.022,0,0,1-.7-3.731,8.845,8.845,0,0,1,.71-3.693,5.376,5.376,0,0,1,2.027-2.385,5.679,5.679,0,0,1,3.1-.83A5.78,5.78,0,0,1,416.552,346.963Zm-5.274,2.434a7.037,7.037,0,0,0-.729,3.664,6.965,6.965,0,0,0,.738,3.664,2.613,2.613,0,0,0,4.317.01,9.724,9.724,0,0,0,0-7.347,2.622,2.622,0,0,0-4.326.01Z" transform="translate(-340.579 -342.221)" fill="#e4001a"/>
      <path id="Trazado_19" data-name="Trazado 19" d="M439.881,346.543a3.149,3.149,0,0,1,1.363,1.078,2.669,2.669,0,0,1,.473,1.546,3.093,3.093,0,0,1-.662,1.956,7.4,7.4,0,0,1-1.894,1.632l2.765,2.595a13.567,13.567,0,0,0,.947-2.863l2.291.688a14.643,14.643,0,0,1-1.723,3.607l2.254,2.023-2.234,1.164-1.572-1.527a6,6,0,0,1-4.147,1.527,5.886,5.886,0,0,1-2.386-.457,3.761,3.761,0,0,1-1.619-1.289,3.3,3.3,0,0,1-.578-1.937,3.346,3.346,0,0,1,.624-2.023,7.3,7.3,0,0,1,1.951-1.717,8.49,8.49,0,0,1-1.411-1.67,3.1,3.1,0,0,1-.406-1.593,2.922,2.922,0,0,1,.434-1.565,3.082,3.082,0,0,1,1.316-1.134,4.827,4.827,0,0,1,2.132-.43A5.151,5.151,0,0,1,439.881,346.543Zm-3.608,8.464a2.167,2.167,0,0,0-.313,1.145,1.657,1.657,0,0,0,.606,1.355,2.459,2.459,0,0,0,1.61.5,3.471,3.471,0,0,0,2.329-.878l-3.238-3.11A3.427,3.427,0,0,0,436.273,355.007Zm.588-6.7a1.313,1.313,0,0,0-.351.954,1.907,1.907,0,0,0,.264.984,5.763,5.763,0,0,0,.91,1.078,4.117,4.117,0,0,0,1.1-.964,1.791,1.791,0,0,0,.36-1.1,1.307,1.307,0,0,0-.349-.963,1.484,1.484,0,0,0-1.931.01Z" transform="translate(-341.318 -342.221)" fill="#e4001a"/>
      <path id="Trazado_20" data-name="Trazado 20" d="M468.2,346.467l-.3,2.194h-3.314v11.012H461.8V348.661h-3.484v-2.194Z" transform="translate(-342.046 -342.23)" fill="#e4001a"/>
      <path id="Trazado_21" data-name="Trazado 21" d="M481.169,346.467l-.3,2.041h-4.733v3.436h4.128v2.023h-4.128v3.644h5.074v2.062h-7.859V346.467Z" transform="translate(-342.481 -342.23)" fill="#e4001a"/>
      <path id="Trazado_22" data-name="Trazado 22" d="M489.821,346.467v10.953h5.189l-.3,2.252h-7.669V346.467Z" transform="translate(-342.877 -342.23)" fill="#e4001a"/>
      <path id="Trazado_23" data-name="Trazado 23" d="M507.24,359.672l-.738-2.958h-4.109l-.738,2.958h-2.9l4.033-13.205h3.391l4.014,13.205Zm-4.316-5.038h3.048l-1.534-6.089Z" transform="translate(-343.216 -342.23)" fill="#e4001a"/>
      <path id="Trazado_24" data-name="Trazado 24" d="M521.61,346.563a5.985,5.985,0,0,1,1.94,1.25l-1.326,1.545a5.112,5.112,0,0,0-1.4-.839,4.151,4.151,0,0,0-1.5-.267,2.348,2.348,0,0,0-1.391.372,1.226,1.226,0,0,0-.521,1.059,1.309,1.309,0,0,0,.218.782,1.987,1.987,0,0,0,.767.573,12.564,12.564,0,0,0,1.647.611,7.535,7.535,0,0,1,2.916,1.555,3.491,3.491,0,0,1,.965,2.644,3.826,3.826,0,0,1-.6,2.146,4.02,4.02,0,0,1-1.761,1.45,6.488,6.488,0,0,1-2.708.526,7.249,7.249,0,0,1-2.766-.5,6.36,6.36,0,0,1-2.083-1.355l1.422-1.584a5.8,5.8,0,0,0,1.571.983,4.652,4.652,0,0,0,1.78.334,2.6,2.6,0,0,0,1.637-.477,1.6,1.6,0,0,0,.616-1.336,1.658,1.658,0,0,0-.218-.888,1.916,1.916,0,0,0-.748-.639,8.631,8.631,0,0,0-1.534-.591,7.387,7.387,0,0,1-3.058-1.6,3.638,3.638,0,0,1-.331-4.4,3.755,3.755,0,0,1,1.628-1.307,5.832,5.832,0,0,1,2.367-.458A6.78,6.78,0,0,1,521.61,346.563Z" transform="translate(-343.658 -342.221)" fill="#e4001a"/>
    </g>
  </g>
</svg>
